<svg width="211" height="68" viewBox="0 0 211 68" fill="none" xmlns="http://www.w3.org/2000/svg">
<circle cx="27.5" cy="34" r="27.5" fill="#00DB72"/>
<circle cx="25" cy="29.5" r="22" fill="#C5FFE3"/>
<path d="M82.3115 33.6396H95.4463V51.5596C93.2979 52.2594 91.2308 52.7559 89.2451 53.0488C87.2757 53.3418 85.1436 53.4883 82.8486 53.4883C77.445 53.4883 73.2783 51.8932 70.3486 48.7031C67.4189 45.4967 65.9541 40.9801 65.9541 35.1533C65.9541 29.4079 67.6061 24.9157 70.9102 21.6768C74.2142 18.4215 78.7633 16.7939 84.5576 16.7939C88.2848 16.7939 91.8167 17.5101 95.1533 18.9424L93.1025 23.8008C90.2054 22.4661 87.3083 21.7988 84.4111 21.7988C80.6025 21.7988 77.5915 22.9951 75.3779 25.3877C73.1644 27.7803 72.0576 31.0518 72.0576 35.2021C72.0576 39.5641 73.0505 42.8844 75.0361 45.1631C77.0381 47.4255 79.9108 48.5566 83.6543 48.5566C85.5423 48.5566 87.5605 48.3206 89.709 47.8486V38.6445H82.3115V33.6396ZM117.126 25.5098C118.282 25.5098 119.234 25.5911 119.982 25.7539L119.421 31.1006C118.607 30.9053 117.761 30.8076 116.882 30.8076C114.587 30.8076 112.723 31.5563 111.291 33.0537C109.875 34.5511 109.167 36.4961 109.167 38.8887V53H103.43V25.998H107.922L108.679 30.7588H108.972C109.867 29.1475 111.031 27.8698 112.463 26.9258C113.911 25.9818 115.466 25.5098 117.126 25.5098ZM136.804 53.4883C132.604 53.4883 129.317 52.2676 126.94 49.8262C124.58 47.3685 123.4 43.9912 123.4 39.6943C123.4 35.2835 124.499 31.8167 126.696 29.2939C128.894 26.7712 131.913 25.5098 135.754 25.5098C139.318 25.5098 142.134 26.5921 144.201 28.7568C146.268 30.9215 147.302 33.9001 147.302 37.6924V40.793H129.309C129.39 43.4134 130.098 45.4316 131.433 46.8477C132.767 48.2474 134.647 48.9473 137.072 48.9473C138.667 48.9473 140.148 48.8008 141.516 48.5078C142.899 48.1986 144.38 47.694 145.959 46.9941V51.6572C144.559 52.3245 143.143 52.7965 141.711 53.0732C140.279 53.3499 138.643 53.4883 136.804 53.4883ZM135.754 29.8555C133.931 29.8555 132.466 30.4333 131.359 31.5889C130.269 32.7445 129.618 34.429 129.406 36.6426H141.662C141.63 34.4128 141.092 32.7282 140.051 31.5889C139.009 30.4333 137.577 29.8555 135.754 29.8555ZM165.612 53.4883C161.413 53.4883 158.125 52.2676 155.749 49.8262C153.389 47.3685 152.209 43.9912 152.209 39.6943C152.209 35.2835 153.308 31.8167 155.505 29.2939C157.702 26.7712 160.721 25.5098 164.562 25.5098C168.127 25.5098 170.943 26.5921 173.01 28.7568C175.077 30.9215 176.11 33.9001 176.11 37.6924V40.793H158.117C158.199 43.4134 158.907 45.4316 160.241 46.8477C161.576 48.2474 163.456 48.9473 165.881 48.9473C167.476 48.9473 168.957 48.8008 170.324 48.5078C171.708 48.1986 173.189 47.694 174.768 46.9941V51.6572C173.368 52.3245 171.952 52.7965 170.52 53.0732C169.087 53.3499 167.451 53.4883 165.612 53.4883ZM164.562 29.8555C162.74 29.8555 161.275 30.4333 160.168 31.5889C159.077 32.7445 158.426 34.429 158.215 36.6426H170.471C170.438 34.4128 169.901 32.7282 168.859 31.5889C167.818 30.4333 166.385 29.8555 164.562 29.8555ZM206.384 53H200.622V36.3984C200.622 34.3151 200.199 32.7607 199.353 31.7354C198.522 30.71 197.196 30.1973 195.373 30.1973C192.948 30.1973 191.174 30.9134 190.051 32.3457C188.928 33.778 188.366 36.1787 188.366 39.5479V53H182.629V25.998H187.121L187.927 29.5381H188.22C189.034 28.2523 190.189 27.2594 191.687 26.5596C193.184 25.8597 194.844 25.5098 196.667 25.5098C203.145 25.5098 206.384 28.8057 206.384 35.3975V53Z" fill="#C5FFE3"/>
</svg>
